<svg width="19" height="32" viewBox="0 0 19 32" fill="none" xmlns="http://www.w3.org/2000/svg">
<path d="M18.2266 21.8906L17.748 21.3438C17.4062 21.0703 16.9277 21.0703 16.5859 21.3438L10.9121 27.0859V1.38281C10.9121 0.972656 10.502 0.5625 10.0918 0.5625H9.4082C8.92969 0.5625 8.58789 0.972656 8.58789 1.38281V27.0859L2.8457 21.3438C2.50391 21.0703 2.02539 21.0703 1.68359 21.3438L1.20508 21.8906C0.863281 22.1641 0.863281 22.7109 1.20508 22.9844L9.13477 30.9824C9.47656 31.3242 9.95508 31.3242 10.2969 30.9824L18.2266 22.9844C18.5684 22.7109 18.5684 22.1641 18.2266 21.8906Z" fill="white"/>
</svg>
