<svg width="187" height="150" viewBox="0 0 187 150" fill="none" xmlns="http://www.w3.org/2000/svg">
<g opacity="0.1" filter="url(#filter0_d_10_37)">
<path fill-rule="evenodd" clip-rule="evenodd" d="M174.559 93.5633C175.309 98.4368 175.698 103.419 175.698 108.5C175.698 162.144 132.144 205.698 78.5 205.698C24.8558 205.698 -18.6979 162.144 -18.6979 108.5C-18.6979 54.856 24.8558 11.3022 78.5 11.3022C82.6501 11.3022 86.7369 11.5645 90.7514 12.0708C92.9124 12.342 94.8021 13.626 95.851 15.5337C96.8907 17.4325 96.9631 19.7291 96.0408 21.6911C94.9377 24.0239 94.3229 26.6369 94.3229 29.3856C94.3229 35.2627 97.1349 40.4888 101.484 43.789C103.582 45.3893 104.567 48.0657 103.997 50.6516C103.582 52.5413 103.365 54.4943 103.365 56.5106C103.365 71.4836 115.517 83.6356 130.49 83.6356C131.385 83.6356 132.262 83.5904 133.139 83.509C135.399 83.292 137.614 84.2143 139.052 85.9774C142.37 90.0642 147.425 92.6773 153.094 92.6773C157.108 92.6773 160.824 91.3662 163.826 89.151C165.734 87.7405 168.239 87.424 170.436 88.3282C172.633 89.2324 174.188 91.2215 174.559 93.5633ZM121.448 124.323C115.209 124.323 110.146 129.386 110.146 135.625C110.146 141.864 115.209 146.927 121.448 146.927C127.687 146.927 132.75 141.864 132.75 135.625C132.75 129.386 127.687 124.323 121.448 124.323ZM53.6354 146.927C47.3967 146.927 42.3333 151.991 42.3333 158.229C42.3333 164.468 47.3967 169.531 53.6354 169.531C59.8742 169.531 64.9375 164.468 64.9375 158.229C64.9375 151.991 59.8742 146.927 53.6354 146.927ZM55.8054 49.2772C52.0622 49.2772 49.0242 52.3153 49.0242 56.0585C49.0242 59.8018 52.0622 62.8398 55.8054 62.8398C59.5487 62.8398 62.5867 59.8018 62.5867 56.0585C62.5867 52.3153 59.5487 49.2772 55.8054 49.2772ZM80.7604 124.323C77.0172 124.323 73.9792 127.361 73.9792 131.104C73.9792 134.848 77.0172 137.886 80.7604 137.886C84.5037 137.886 87.5417 134.848 87.5417 131.104C87.5417 127.361 84.5037 124.323 80.7604 124.323ZM28.7708 97.1981C25.0276 97.1981 21.9896 100.236 21.9896 103.979C21.9896 107.723 25.0276 110.761 28.7708 110.761C32.5141 110.761 35.5521 107.723 35.5521 103.979C35.5521 100.236 32.5141 97.1981 28.7708 97.1981ZM71.7187 76.8543C65.48 76.8543 60.4167 81.9177 60.4167 88.1564C60.4167 94.3952 65.48 99.4585 71.7187 99.4585C77.9575 99.4585 83.0208 94.3952 83.0208 88.1564C83.0208 81.9177 77.9575 76.8543 71.7187 76.8543Z" fill="white"/>
</g>
<defs>
<filter id="filter0_d_10_37" x="-34" y="0" width="225" height="225" filterUnits="userSpaceOnUse" color-interpolation-filters="sRGB">
<feFlood flood-opacity="0" result="BackgroundImageFix"/>
<feColorMatrix in="SourceAlpha" type="matrix" values="0 0 0 0 0 0 0 0 0 0 0 0 0 0 0 0 0 0 127 0" result="hardAlpha"/>
<feOffset dy="4"/>
<feGaussianBlur stdDeviation="2"/>
<feComposite in2="hardAlpha" operator="out"/>
<feColorMatrix type="matrix" values="0 0 0 0 0 0 0 0 0 0 0 0 0 0 0 0 0 0 0.25 0"/>
<feBlend mode="normal" in2="BackgroundImageFix" result="effect1_dropShadow_10_37"/>
<feBlend mode="normal" in="SourceGraphic" in2="effect1_dropShadow_10_37" result="shape"/>
</filter>
</defs>
</svg>
